<svg width="300" height="60" viewBox="0 0 300 60" fill="none" xmlns="http://www.w3.org/2000/svg">
<rect width="300" height="60" fill="#673D3F"/>
<path d="M95.309 36.08H96.809V23.96H95.309V23.04H101.829C103.096 23.04 104.062 23.36 104.729 24C105.409 24.6267 105.749 25.5533 105.749 26.78C105.749 27.9933 105.402 28.9333 104.709 29.6C104.016 30.2667 103.042 30.6 101.789 30.6H98.529V36.08H100.429V37H95.309V36.08ZM98.529 29.62H101.689C102.409 29.62 102.956 29.3933 103.329 28.94C103.716 28.4867 103.909 27.9333 103.909 27.28V26.36C103.909 25.7067 103.716 25.1533 103.329 24.7C102.956 24.2467 102.409 24.02 101.689 24.02H98.529V29.62ZM110.476 37.24C109.516 37.24 108.763 36.9933 108.216 36.5C107.683 35.9933 107.416 35.3067 107.416 34.44C107.416 33.9467 107.496 33.5133 107.656 33.14C107.816 32.7533 108.076 32.4333 108.436 32.18C108.809 31.9267 109.289 31.7333 109.876 31.6C110.463 31.4667 111.176 31.4 112.016 31.4H113.496V29.88C113.496 29.0667 113.296 28.4467 112.896 28.02C112.509 27.58 111.923 27.36 111.136 27.36C110.789 27.36 110.469 27.3933 110.176 27.46C109.883 27.5133 109.643 27.5933 109.456 27.7V27.74C109.603 27.82 109.743 27.94 109.876 28.1C110.023 28.26 110.096 28.4867 110.096 28.78C110.096 29.1267 109.996 29.4 109.796 29.6C109.596 29.7867 109.329 29.88 108.996 29.88C108.676 29.88 108.409 29.7867 108.196 29.6C107.996 29.4 107.896 29.1067 107.896 28.72C107.896 28.4267 107.983 28.1467 108.156 27.88C108.329 27.6 108.576 27.3533 108.896 27.14C109.216 26.9267 109.609 26.76 110.076 26.64C110.556 26.5067 111.096 26.44 111.696 26.44C112.776 26.44 113.616 26.72 114.216 27.28C114.829 27.84 115.136 28.6267 115.136 29.64V36.14H116.636V36.84C116.489 36.9467 116.289 37.04 116.036 37.12C115.796 37.2 115.523 37.24 115.216 37.24C114.696 37.24 114.296 37.0933 114.016 36.8C113.736 36.5067 113.596 36.1133 113.596 35.62V35.48H113.496C113.403 35.7067 113.276 35.9267 113.116 36.14C112.969 36.3533 112.776 36.54 112.536 36.7C112.296 36.86 112.003 36.9867 111.656 37.08C111.323 37.1867 110.929 37.24 110.476 37.24ZM111.176 36.14C111.816 36.14 112.363 35.98 112.816 35.66C113.269 35.3267 113.496 34.82 113.496 34.14V32.2H112.196C111.623 32.2 111.143 32.2467 110.756 32.34C110.369 32.42 110.063 32.5467 109.836 32.72C109.609 32.88 109.443 33.08 109.336 33.32C109.243 33.56 109.196 33.84 109.196 34.16V34.58C109.196 35.0867 109.369 35.4733 109.716 35.74C110.063 36.0067 110.549 36.14 111.176 36.14ZM122.934 37.24C122.187 37.24 121.521 37.1133 120.934 36.86C120.361 36.5933 119.874 36.2267 119.474 35.76C119.074 35.28 118.767 34.7133 118.554 34.06C118.341 33.3933 118.234 32.6533 118.234 31.84C118.234 31.0133 118.347 30.2667 118.574 29.6C118.814 28.9333 119.147 28.3667 119.574 27.9C120.001 27.4333 120.507 27.0733 121.094 26.82C121.694 26.5667 122.354 26.44 123.074 26.44C124.154 26.44 125.007 26.6733 125.634 27.14C126.274 27.5933 126.594 28.1733 126.594 28.88C126.594 29.3067 126.481 29.64 126.254 29.88C126.041 30.12 125.741 30.24 125.354 30.24C124.941 30.24 124.634 30.12 124.434 29.88C124.234 29.64 124.134 29.3533 124.134 29.02C124.134 28.7267 124.207 28.4733 124.354 28.26C124.501 28.0467 124.707 27.88 124.974 27.76V27.7C124.801 27.5933 124.574 27.5133 124.294 27.46C124.027 27.4067 123.681 27.38 123.254 27.38C122.787 27.38 122.354 27.4667 121.954 27.64C121.567 27.8133 121.234 28.06 120.954 28.38C120.674 28.6867 120.454 29.0533 120.294 29.48C120.134 29.8933 120.054 30.3467 120.054 30.84V32.32C120.054 32.8667 120.127 33.3667 120.274 33.82C120.421 34.26 120.627 34.64 120.894 34.96C121.174 35.28 121.501 35.5267 121.874 35.7C122.261 35.8733 122.694 35.96 123.174 35.96C123.987 35.96 124.627 35.7933 125.094 35.46C125.561 35.1133 125.934 34.6667 126.214 34.12L126.854 34.54C126.734 34.8867 126.561 35.2267 126.334 35.56C126.107 35.88 125.834 36.1667 125.514 36.42C125.194 36.66 124.814 36.8533 124.374 37C123.947 37.16 123.467 37.24 122.934 37.24ZM133.051 37.24C132.304 37.24 131.638 37.1133 131.051 36.86C130.478 36.5933 129.991 36.2267 129.591 35.76C129.191 35.28 128.884 34.7133 128.671 34.06C128.458 33.3933 128.351 32.6533 128.351 31.84C128.351 31.0133 128.464 30.2667 128.691 29.6C128.931 28.9333 129.264 28.3667 129.691 27.9C130.118 27.4333 130.624 27.0733 131.211 26.82C131.811 26.5667 132.471 26.44 133.191 26.44C134.271 26.44 135.124 26.6733 135.751 27.14C136.391 27.5933 136.711 28.1733 136.711 28.88C136.711 29.3067 136.598 29.64 136.371 29.88C136.158 30.12 135.858 30.24 135.471 30.24C135.058 30.24 134.751 30.12 134.551 29.88C134.351 29.64 134.251 29.3533 134.251 29.02C134.251 28.7267 134.324 28.4733 134.471 28.26C134.618 28.0467 134.824 27.88 135.091 27.76V27.7C134.918 27.5933 134.691 27.5133 134.411 27.46C134.144 27.4067 133.798 27.38 133.371 27.38C132.904 27.38 132.471 27.4667 132.071 27.64C131.684 27.8133 131.351 28.06 131.071 28.38C130.791 28.6867 130.571 29.0533 130.411 29.48C130.251 29.8933 130.171 30.3467 130.171 30.84V32.32C130.171 32.8667 130.244 33.3667 130.391 33.82C130.538 34.26 130.744 34.64 131.011 34.96C131.291 35.28 131.618 35.5267 131.991 35.7C132.378 35.8733 132.811 35.96 133.291 35.96C134.104 35.96 134.744 35.7933 135.211 35.46C135.678 35.1133 136.051 34.6667 136.331 34.12L136.971 34.54C136.851 34.8867 136.678 35.2267 136.451 35.56C136.224 35.88 135.951 36.1667 135.631 36.42C135.311 36.66 134.931 36.8533 134.491 37C134.064 37.16 133.584 37.24 133.051 37.24ZM144.126 36.08H146.006V31.92H145.946C145.626 32.3067 145.22 32.62 144.726 32.86C144.246 33.1 143.646 33.22 142.926 33.22C141.886 33.22 141.106 32.98 140.586 32.5C140.066 32.02 139.806 31.2333 139.806 30.14V27.58H138.326V26.68H142.826V27.58H141.446V29.98C141.446 30.74 141.606 31.28 141.926 31.6C142.26 31.92 142.833 32.08 143.646 32.08C144.353 32.08 144.92 31.9533 145.346 31.7C145.786 31.4467 146.006 31.0667 146.006 30.56V27.58H144.626V26.68H149.126V27.58H147.646V36.08H149.126V37H144.126V36.08ZM151.127 36.08H152.607V27.58H151.127V26.68H155.687V27.58H154.207V31.36L154.027 34.14H154.087L159.247 28.18V27.58H157.767V26.68H162.327V27.58H160.847V36.08H162.327V37H157.767V36.08H159.247V32.34L159.427 29.54H159.347L154.207 35.5V36.08H155.687V37H151.127V36.08ZM165.85 36.08H167.73V27.66H165.21V29.72H164.01V26.68H173.09V29.72H171.89V27.66H169.37V36.08H171.25V37H165.85V36.08ZM177.898 37.24C176.938 37.24 176.185 36.9933 175.638 36.5C175.105 35.9933 174.838 35.3067 174.838 34.44C174.838 33.9467 174.918 33.5133 175.078 33.14C175.238 32.7533 175.498 32.4333 175.858 32.18C176.231 31.9267 176.711 31.7333 177.298 31.6C177.885 31.4667 178.598 31.4 179.438 31.4H180.918V29.88C180.918 29.0667 180.718 28.4467 180.318 28.02C179.931 27.58 179.345 27.36 178.558 27.36C178.211 27.36 177.891 27.3933 177.598 27.46C177.305 27.5133 177.065 27.5933 176.878 27.7V27.74C177.025 27.82 177.165 27.94 177.298 28.1C177.445 28.26 177.518 28.4867 177.518 28.78C177.518 29.1267 177.418 29.4 177.218 29.6C177.018 29.7867 176.751 29.88 176.418 29.88C176.098 29.88 175.831 29.7867 175.618 29.6C175.418 29.4 175.318 29.1067 175.318 28.72C175.318 28.4267 175.405 28.1467 175.578 27.88C175.751 27.6 175.998 27.3533 176.318 27.14C176.638 26.9267 177.031 26.76 177.498 26.64C177.978 26.5067 178.518 26.44 179.118 26.44C180.198 26.44 181.038 26.72 181.638 27.28C182.251 27.84 182.558 28.6267 182.558 29.64V36.14H184.058V36.84C183.911 36.9467 183.711 37.04 183.458 37.12C183.218 37.2 182.945 37.24 182.638 37.24C182.118 37.24 181.718 37.0933 181.438 36.8C181.158 36.5067 181.018 36.1133 181.018 35.62V35.48H180.918C180.825 35.7067 180.698 35.9267 180.538 36.14C180.391 36.3533 180.198 36.54 179.958 36.7C179.718 36.86 179.425 36.9867 179.078 37.08C178.745 37.1867 178.351 37.24 177.898 37.24ZM178.598 36.14C179.238 36.14 179.785 35.98 180.238 35.66C180.691 35.3267 180.918 34.82 180.918 34.14V32.2H179.618C179.045 32.2 178.565 32.2467 178.178 32.34C177.791 32.42 177.485 32.5467 177.258 32.72C177.031 32.88 176.865 33.08 176.758 33.32C176.665 33.56 176.618 33.84 176.618 34.16V34.58C176.618 35.0867 176.791 35.4733 177.138 35.74C177.485 36.0067 177.971 36.14 178.598 36.14ZM187.022 36.08H188.902V27.66H186.382V29.72H185.182V26.68H194.262V29.72H193.062V27.66H190.542V36.08H192.422V37H187.022V36.08ZM195.951 36.08H197.431V27.58H195.951V26.68H200.551V27.58H199.071V30.68H201.711C202.778 30.68 203.591 30.9533 204.151 31.5C204.711 32.0333 204.991 32.8067 204.991 33.82C204.991 34.82 204.698 35.6 204.111 36.16C203.538 36.72 202.731 37 201.691 37H195.951V36.08ZM201.451 36.02C202.051 36.02 202.491 35.8533 202.771 35.52C203.051 35.1733 203.191 34.74 203.191 34.22V33.46C203.191 32.9267 203.051 32.4933 202.771 32.16C202.491 31.8267 202.051 31.66 201.451 31.66H199.071V36.02H201.451Z" fill="#EFE3DF"/>
</svg>
