<svg width="340" height="60" viewBox="0 0 340 60" fill="none" xmlns="http://www.w3.org/2000/svg">
<rect x="0.5" y="0.5" width="339" height="59" stroke="#673D3F"/>
<path d="M27.1 37.08H28.6V24.96H27.1V24.04H33.78C34.9533 24.04 35.8667 24.34 36.52 24.94C37.1867 25.54 37.52 26.34 37.52 27.34C37.52 27.8333 37.4467 28.2733 37.3 28.66C37.1533 29.0467 36.9533 29.38 36.7 29.66C36.46 29.94 36.18 30.1667 35.86 30.34C35.5533 30.5133 35.2333 30.6267 34.9 30.68V30.74C35.2467 30.7667 35.6067 30.8533 35.98 31C36.3533 31.1467 36.6933 31.36 37 31.64C37.3067 31.92 37.56 32.2667 37.76 32.68C37.96 33.0933 38.06 33.5733 38.06 34.12C38.06 34.7067 37.9667 35.24 37.78 35.72C37.6067 36.2 37.3533 36.6133 37.02 36.96C36.7 37.2933 36.3133 37.5533 35.86 37.74C35.4067 37.9133 34.9133 38 34.38 38H27.1V37.08ZM30.32 37.02H33.76C34.5333 37.02 35.1333 36.7933 35.56 36.34C36 35.8867 36.22 35.3 36.22 34.58V33.7C36.22 32.9933 36 32.4133 35.56 31.96C35.1333 31.5067 34.5333 31.28 33.76 31.28H30.32V37.02ZM30.32 30.3H33.44C34.16 30.3 34.7133 30.0933 35.1 29.68C35.4867 29.2667 35.68 28.74 35.68 28.1V27.22C35.68 26.58 35.4867 26.0533 35.1 25.64C34.7133 25.2267 34.16 25.02 33.44 25.02H30.32V30.3ZM40.3984 37.08H41.8784V28.58H40.3984V27.68H44.9984V28.58H43.5184V31.68H45.9984C47.0651 31.68 47.8784 31.9533 48.4384 32.5C48.9984 33.0333 49.2784 33.8067 49.2784 34.82C49.2784 35.82 48.9851 36.6 48.3984 37.16C47.8251 37.72 47.0184 38 45.9784 38H40.3984V37.08ZM49.8784 37.08H51.3584V28.58H49.8784V27.68H54.4784V28.58H52.9984V37.08H54.4784V38H49.8784V37.08ZM45.7384 37.02C46.3384 37.02 46.7784 36.8533 47.0584 36.52C47.3384 36.1733 47.4784 35.74 47.4784 35.22V34.46C47.4784 33.9267 47.3384 33.4933 47.0584 33.16C46.7784 32.8267 46.3384 32.66 45.7384 32.66H43.5184V37.02H45.7384ZM60.9527 38.24C59.726 38.24 58.7127 37.8267 57.9127 37C57.4327 36.4933 57.0527 35.8333 56.7727 35.02C56.506 34.2067 56.3727 33.22 56.3727 32.06C56.3727 31.0867 56.406 30.2333 56.4727 29.5C56.5393 28.7533 56.6393 28.1067 56.7727 27.56C56.9193 27 57.0993 26.52 57.3127 26.12C57.526 25.72 57.7793 25.3667 58.0727 25.06C58.2593 24.86 58.466 24.7 58.6927 24.58C58.9193 24.4467 59.1793 24.34 59.4727 24.26C59.7793 24.1667 60.1327 24.0933 60.5327 24.04C60.946 23.9867 61.426 23.9267 61.9727 23.86C62.4793 23.7933 62.8993 23.74 63.2327 23.7C63.566 23.66 63.846 23.62 64.0727 23.58L64.1727 22.8H64.9727C65.0527 23.04 65.0927 23.3267 65.0927 23.66C65.0927 23.9667 65.0527 24.2267 64.9727 24.44C64.906 24.64 64.7993 24.82 64.6527 24.98C64.5593 25.0733 64.446 25.16 64.3127 25.24C64.1793 25.3067 63.9993 25.3733 63.7727 25.44C63.5593 25.4933 63.286 25.54 62.9527 25.58C62.6327 25.62 62.2327 25.66 61.7527 25.7C61.2727 25.7267 60.8593 25.76 60.5127 25.8C60.1793 25.8267 59.886 25.8667 59.6327 25.92C59.3927 25.9733 59.186 26.0467 59.0127 26.14C58.8393 26.22 58.6793 26.3267 58.5327 26.46C58.3727 26.6333 58.2327 26.8267 58.1127 27.04C57.9927 27.2533 57.886 27.5067 57.7927 27.8C57.7127 28.0933 57.6393 28.44 57.5727 28.84C57.5193 29.24 57.4727 29.7133 57.4327 30.26H57.5127C57.846 29.4867 58.2993 28.9 58.8727 28.5C59.446 28.0867 60.1993 27.88 61.1327 27.88C62.466 27.88 63.526 28.3133 64.3127 29.18C65.0993 30.0467 65.4927 31.3067 65.4927 32.96C65.4927 33.76 65.386 34.4867 65.1727 35.14C64.9593 35.7933 64.6527 36.3533 64.2527 36.82C63.866 37.2733 63.3927 37.6267 62.8327 37.88C62.2727 38.12 61.646 38.24 60.9527 38.24ZM60.9327 37.26C61.3993 37.26 61.7993 37.18 62.1327 37.02C62.4793 36.86 62.7593 36.6333 62.9727 36.34C63.1993 36.0467 63.366 35.7 63.4727 35.3C63.5793 34.9 63.6327 34.4667 63.6327 34V32.12C63.6327 31.6533 63.5793 31.22 63.4727 30.82C63.366 30.42 63.1993 30.08 62.9727 29.8C62.7593 29.5067 62.4793 29.28 62.1327 29.12C61.7993 28.9467 61.3993 28.86 60.9327 28.86C60.466 28.86 60.0593 28.9467 59.7127 29.12C59.3793 29.28 59.0993 29.5067 58.8727 29.8C58.6593 30.08 58.4993 30.42 58.3927 30.82C58.286 31.22 58.2327 31.6533 58.2327 32.12V34C58.2327 34.4667 58.286 34.9 58.3927 35.3C58.4993 35.7 58.6593 36.0467 58.8727 36.34C59.0993 36.6333 59.3793 36.86 59.7127 37.02C60.0593 37.18 60.466 37.26 60.9327 37.26ZM67.1906 41.08H68.6706V28.98L67.1906 28.72V28.04L70.3106 27.44V29.24H70.3906C70.6173 28.7467 70.9773 28.3267 71.4706 27.98C71.964 27.62 72.6173 27.44 73.4306 27.44C74.7106 27.44 75.7306 27.9067 76.4906 28.84C77.264 29.76 77.6506 31.0933 77.6506 32.84C77.6506 34.5867 77.264 35.9267 76.4906 36.86C75.7306 37.78 74.7106 38.24 73.4306 38.24C72.6306 38.24 71.9773 38.0667 71.4706 37.72C70.9773 37.3733 70.6173 36.9533 70.3906 36.46H70.3106V41.08H72.1906V42H67.1906V41.08ZM72.9506 37.1C73.8706 37.1 74.584 36.7933 75.0906 36.18C75.6106 35.5533 75.8706 34.72 75.8706 33.68V32C75.8706 30.96 75.6106 30.1333 75.0906 29.52C74.584 28.8933 73.8706 28.58 72.9506 28.58C72.6306 28.58 72.3106 28.6267 71.9906 28.72C71.6706 28.8133 71.384 28.9467 71.1306 29.12C70.8906 29.2933 70.6906 29.5133 70.5306 29.78C70.384 30.0333 70.3106 30.32 70.3106 30.64V35.04C70.3106 35.36 70.384 35.6533 70.5306 35.92C70.6906 36.1733 70.8906 36.3867 71.1306 36.56C71.384 36.7333 71.6706 36.8667 71.9906 36.96C72.3106 37.0533 72.6306 37.1 72.9506 37.1ZM82.9116 38.24C81.9516 38.24 81.1982 37.9933 80.6516 37.5C80.1182 36.9933 79.8516 36.3067 79.8516 35.44C79.8516 34.9467 79.9316 34.5133 80.0916 34.14C80.2516 33.7533 80.5116 33.4333 80.8716 33.18C81.2449 32.9267 81.7249 32.7333 82.3116 32.6C82.8982 32.4667 83.6116 32.4 84.4516 32.4H85.9316V30.88C85.9316 30.0667 85.7316 29.4467 85.3316 29.02C84.9449 28.58 84.3582 28.36 83.5716 28.36C83.2249 28.36 82.9049 28.3933 82.6116 28.46C82.3182 28.5133 82.0782 28.5933 81.8916 28.7V28.74C82.0382 28.82 82.1782 28.94 82.3116 29.1C82.4582 29.26 82.5316 29.4867 82.5316 29.78C82.5316 30.1267 82.4316 30.4 82.2316 30.6C82.0316 30.7867 81.7649 30.88 81.4316 30.88C81.1116 30.88 80.8449 30.7867 80.6316 30.6C80.4316 30.4 80.3316 30.1067 80.3316 29.72C80.3316 29.4267 80.4182 29.1467 80.5916 28.88C80.7649 28.6 81.0116 28.3533 81.3316 28.14C81.6516 27.9267 82.0449 27.76 82.5116 27.64C82.9916 27.5067 83.5316 27.44 84.1316 27.44C85.2116 27.44 86.0516 27.72 86.6516 28.28C87.2649 28.84 87.5716 29.6267 87.5716 30.64V37.14H89.0716V37.84C88.9249 37.9467 88.7249 38.04 88.4716 38.12C88.2316 38.2 87.9582 38.24 87.6516 38.24C87.1316 38.24 86.7316 38.0933 86.4516 37.8C86.1716 37.5067 86.0316 37.1133 86.0316 36.62V36.48H85.9316C85.8382 36.7067 85.7116 36.9267 85.5516 37.14C85.4049 37.3533 85.2116 37.54 84.9716 37.7C84.7316 37.86 84.4382 37.9867 84.0916 38.08C83.7582 38.1867 83.3649 38.24 82.9116 38.24ZM83.6116 37.14C84.2516 37.14 84.7982 36.98 85.2516 36.66C85.7049 36.3267 85.9316 35.82 85.9316 35.14V33.2H84.6316C84.0582 33.2 83.5782 33.2467 83.1916 33.34C82.8049 33.42 82.4982 33.5467 82.2716 33.72C82.0449 33.88 81.8782 34.08 81.7716 34.32C81.6782 34.56 81.6316 34.84 81.6316 35.16V35.58C81.6316 36.0867 81.8049 36.4733 82.1516 36.74C82.4982 37.0067 82.9849 37.14 83.6116 37.14ZM92.0356 37.08H93.9156V28.66H91.3956V30.72H90.1956V27.68H99.2756V30.72H98.0756V28.66H95.5556V37.08H97.4356V38H92.0356V37.08ZM100.965 37.08H102.445V28.58H100.965V27.68H105.565V28.58H104.085V31.68H106.725C107.792 31.68 108.605 31.9533 109.165 32.5C109.725 33.0333 110.005 33.8067 110.005 34.82C110.005 35.82 109.712 36.6 109.125 37.16C108.552 37.72 107.745 38 106.705 38H100.965V37.08ZM106.465 37.02C107.065 37.02 107.505 36.8533 107.785 36.52C108.065 36.1733 108.205 35.74 108.205 35.22V34.46C108.205 33.9267 108.065 33.4933 107.785 33.16C107.505 32.8267 107.065 32.66 106.465 32.66H104.085V37.02H106.465ZM116.453 37.08H117.933V28.58H116.453V27.68H121.013V28.58H119.533V32.36L119.353 35.14H119.413L124.573 29.18V28.58H123.093V27.68H127.653V28.58H126.173V37.08H127.653V38H123.093V37.08H124.573V33.34L124.753 30.54H124.673L119.533 36.5V37.08H121.013V38H116.453V37.08ZM133.436 38.24C132.836 38.24 132.296 38.1733 131.816 38.04C131.35 37.9067 130.95 37.7333 130.616 37.52C130.283 37.2933 130.023 37.0333 129.836 36.74C129.663 36.4333 129.576 36.12 129.576 35.8C129.576 35.4133 129.683 35.1067 129.896 34.88C130.11 34.6533 130.39 34.54 130.736 34.54C131.11 34.54 131.39 34.6533 131.576 34.88C131.763 35.1067 131.856 35.38 131.856 35.7C131.856 35.9533 131.79 36.18 131.656 36.38C131.536 36.5667 131.356 36.7133 131.116 36.82V36.86C131.343 37.0067 131.616 37.12 131.936 37.2C132.27 37.28 132.716 37.32 133.276 37.32C134.116 37.32 134.743 37.14 135.156 36.78C135.583 36.42 135.796 35.9867 135.796 35.48V34.98C135.796 34.5 135.63 34.0867 135.296 33.74C134.963 33.3933 134.443 33.22 133.736 33.22H132.276V32.24H133.636C134.223 32.24 134.683 32.0867 135.016 31.78C135.363 31.46 135.536 31.0467 135.536 30.54V30.14C135.536 29.6333 135.37 29.2067 135.036 28.86C134.716 28.5133 134.236 28.34 133.596 28.34C132.85 28.34 132.243 28.5133 131.776 28.86C131.323 29.2067 131.096 29.6667 131.096 30.24V30.82H129.896V27.68H131.096V28.66H131.156C131.41 28.3133 131.743 28.0267 132.156 27.8C132.583 27.56 133.136 27.44 133.816 27.44C134.923 27.44 135.776 27.6867 136.376 28.18C136.976 28.66 137.276 29.32 137.276 30.16C137.276 30.8 137.083 31.3267 136.696 31.74C136.31 32.14 135.816 32.4133 135.216 32.56V32.64C135.923 32.7867 136.483 33.0667 136.896 33.48C137.31 33.8933 137.516 34.4533 137.516 35.16C137.516 35.6267 137.41 36.0533 137.196 36.44C136.996 36.8133 136.71 37.1333 136.336 37.4C135.976 37.6667 135.543 37.8733 135.036 38.02C134.543 38.1667 134.01 38.24 133.436 38.24ZM148.944 38.24C148.197 38.24 147.53 38.1133 146.944 37.86C146.37 37.5933 145.884 37.2267 145.484 36.76C145.084 36.28 144.777 35.7133 144.564 35.06C144.35 34.3933 144.244 33.6533 144.244 32.84C144.244 32.0133 144.357 31.2667 144.584 30.6C144.824 29.9333 145.157 29.3667 145.584 28.9C146.01 28.4333 146.517 28.0733 147.104 27.82C147.704 27.5667 148.364 27.44 149.084 27.44C150.164 27.44 151.017 27.6733 151.644 28.14C152.284 28.5933 152.604 29.1733 152.604 29.88C152.604 30.3067 152.49 30.64 152.264 30.88C152.05 31.12 151.75 31.24 151.364 31.24C150.95 31.24 150.644 31.12 150.444 30.88C150.244 30.64 150.144 30.3533 150.144 30.02C150.144 29.7267 150.217 29.4733 150.364 29.26C150.51 29.0467 150.717 28.88 150.984 28.76V28.7C150.81 28.5933 150.584 28.5133 150.304 28.46C150.037 28.4067 149.69 28.38 149.264 28.38C148.797 28.38 148.364 28.4667 147.964 28.64C147.577 28.8133 147.244 29.06 146.964 29.38C146.684 29.6867 146.464 30.0533 146.304 30.48C146.144 30.8933 146.064 31.3467 146.064 31.84V33.32C146.064 33.8667 146.137 34.3667 146.284 34.82C146.43 35.26 146.637 35.64 146.904 35.96C147.184 36.28 147.51 36.5267 147.884 36.7C148.27 36.8733 148.704 36.96 149.184 36.96C149.997 36.96 150.637 36.7933 151.104 36.46C151.57 36.1133 151.944 35.6667 152.224 35.12L152.864 35.54C152.744 35.8867 152.57 36.2267 152.344 36.56C152.117 36.88 151.844 37.1667 151.524 37.42C151.204 37.66 150.824 37.8533 150.384 38C149.957 38.16 149.477 38.24 148.944 38.24ZM154.656 37.08H156.136V28.58H154.656V27.68H165.876V28.58H164.396V37.08H165.876V38H161.276V37.08H162.756V28.66H157.776V37.08H159.256V38H154.656V37.08ZM167.879 37.08H169.359V28.58H167.879V27.68H172.439V28.58H170.959V32.36L170.779 35.14H170.839L175.999 29.18V28.58H174.519V27.68H179.079V28.58H177.599V37.08H179.079V38H174.519V37.08H175.999V33.34L176.179 30.54H176.099L170.959 36.5V37.08H172.439V38H167.879V37.08ZM185.682 38.24C184.935 38.24 184.269 38.1133 183.682 37.86C183.109 37.5933 182.622 37.2267 182.222 36.76C181.822 36.28 181.515 35.7133 181.302 35.06C181.089 34.3933 180.982 33.6533 180.982 32.84C180.982 32.0133 181.095 31.2667 181.322 30.6C181.562 29.9333 181.895 29.3667 182.322 28.9C182.749 28.4333 183.255 28.0733 183.842 27.82C184.442 27.5667 185.102 27.44 185.822 27.44C186.902 27.44 187.755 27.6733 188.382 28.14C189.022 28.5933 189.342 29.1733 189.342 29.88C189.342 30.3067 189.229 30.64 189.002 30.88C188.789 31.12 188.489 31.24 188.102 31.24C187.689 31.24 187.382 31.12 187.182 30.88C186.982 30.64 186.882 30.3533 186.882 30.02C186.882 29.7267 186.955 29.4733 187.102 29.26C187.249 29.0467 187.455 28.88 187.722 28.76V28.7C187.549 28.5933 187.322 28.5133 187.042 28.46C186.775 28.4067 186.429 28.38 186.002 28.38C185.535 28.38 185.102 28.4667 184.702 28.64C184.315 28.8133 183.982 29.06 183.702 29.38C183.422 29.6867 183.202 30.0533 183.042 30.48C182.882 30.8933 182.802 31.3467 182.802 31.84V33.32C182.802 33.8667 182.875 34.3667 183.022 34.82C183.169 35.26 183.375 35.64 183.642 35.96C183.922 36.28 184.249 36.5267 184.622 36.7C185.009 36.8733 185.442 36.96 185.922 36.96C186.735 36.96 187.375 36.7933 187.842 36.46C188.309 36.1133 188.682 35.6667 188.962 35.12L189.602 35.54C189.482 35.8867 189.309 36.2267 189.082 36.56C188.855 36.88 188.582 37.1667 188.262 37.42C187.942 37.66 187.562 37.8533 187.122 38C186.695 38.16 186.215 38.24 185.682 38.24ZM191.395 37.08H192.875V28.58H191.395V27.68H195.995V28.58H194.515V32.32H196.175L197.295 29.8C197.681 28.92 198.075 28.3067 198.475 27.96C198.888 27.6133 199.348 27.44 199.855 27.44C200.295 27.44 200.635 27.5667 200.875 27.82C201.115 28.0733 201.235 28.3933 201.235 28.78C201.235 29.1667 201.128 29.48 200.915 29.72C200.715 29.9467 200.441 30.06 200.095 30.06C199.748 30.06 199.481 29.9533 199.295 29.74C199.108 29.5267 199.015 29.2267 199.015 28.84H198.955C198.848 28.9733 198.728 29.1533 198.595 29.38C198.461 29.5933 198.328 29.8467 198.195 30.14L197.075 32.66C197.341 32.7 197.568 32.7867 197.755 32.92C197.941 33.0533 198.121 33.2533 198.295 33.52L200.595 37.08H201.715V38H199.255L196.175 33.24H194.515V37.08H195.995V38H191.395V37.08ZM206.017 38.24C205.057 38.24 204.304 37.9933 203.757 37.5C203.224 36.9933 202.957 36.3067 202.957 35.44C202.957 34.9467 203.037 34.5133 203.197 34.14C203.357 33.7533 203.617 33.4333 203.977 33.18C204.35 32.9267 204.83 32.7333 205.417 32.6C206.004 32.4667 206.717 32.4 207.557 32.4H209.037V30.88C209.037 30.0667 208.837 29.4467 208.437 29.02C208.05 28.58 207.464 28.36 206.677 28.36C206.33 28.36 206.01 28.3933 205.717 28.46C205.424 28.5133 205.184 28.5933 204.997 28.7V28.74C205.144 28.82 205.284 28.94 205.417 29.1C205.564 29.26 205.637 29.4867 205.637 29.78C205.637 30.1267 205.537 30.4 205.337 30.6C205.137 30.7867 204.87 30.88 204.537 30.88C204.217 30.88 203.95 30.7867 203.737 30.6C203.537 30.4 203.437 30.1067 203.437 29.72C203.437 29.4267 203.524 29.1467 203.697 28.88C203.87 28.6 204.117 28.3533 204.437 28.14C204.757 27.9267 205.15 27.76 205.617 27.64C206.097 27.5067 206.637 27.44 207.237 27.44C208.317 27.44 209.157 27.72 209.757 28.28C210.37 28.84 210.677 29.6267 210.677 30.64V37.14H212.177V37.84C212.03 37.9467 211.83 38.04 211.577 38.12C211.337 38.2 211.064 38.24 210.757 38.24C210.237 38.24 209.837 38.0933 209.557 37.8C209.277 37.5067 209.137 37.1133 209.137 36.62V36.48H209.037C208.944 36.7067 208.817 36.9267 208.657 37.14C208.51 37.3533 208.317 37.54 208.077 37.7C207.837 37.86 207.544 37.9867 207.197 38.08C206.864 38.1867 206.47 38.24 206.017 38.24ZM206.717 37.14C207.357 37.14 207.904 36.98 208.357 36.66C208.81 36.3267 209.037 35.82 209.037 35.14V33.2H207.737C207.164 33.2 206.684 33.2467 206.297 33.34C205.91 33.42 205.604 33.5467 205.377 33.72C205.15 33.88 204.984 34.08 204.877 34.32C204.784 34.56 204.737 34.84 204.737 35.16V35.58C204.737 36.0867 204.91 36.4733 205.257 36.74C205.604 37.0067 206.09 37.14 206.717 37.14Z" fill="#673D3F"/>
<path d="M312 34L306.804 28L317.196 28L312 34Z" fill="#673D3F"/>
</svg>
