<svg width="300" height="60" viewBox="0 0 300 60" fill="none" xmlns="http://www.w3.org/2000/svg">
<rect width="300" height="60" fill="#673D3F"/>
<path d="M43.59 37.24C42.71 37.24 41.91 37.0733 41.19 36.74C40.47 36.4067 39.8567 35.9267 39.35 35.3C38.8433 34.6733 38.45 33.9133 38.17 33.02C37.89 32.1267 37.75 31.1267 37.75 30.02C37.75 28.86 37.89 27.8333 38.17 26.94C38.45 26.0467 38.8367 25.2933 39.33 24.68C39.8367 24.0667 40.4433 23.6 41.15 23.28C41.8567 22.96 42.6367 22.8 43.49 22.8C44.3567 22.8 45.0767 22.9467 45.65 23.24C46.2367 23.52 46.6233 23.8733 46.81 24.3H46.89V23.04H48.33V27.12H46.89V26.08C46.89 25.4133 46.5967 24.88 46.01 24.48C45.4233 24.0667 44.6567 23.86 43.71 23.86C43.0033 23.86 42.39 23.9933 41.87 24.26C41.3633 24.5133 40.9433 24.8667 40.61 25.32C40.29 25.76 40.05 26.28 39.89 26.88C39.7433 27.4667 39.67 28.0867 39.67 28.74V31.16C39.67 31.8933 39.7633 32.5533 39.95 33.14C40.15 33.7267 40.43 34.2333 40.79 34.66C41.1633 35.0733 41.6167 35.3933 42.15 35.62C42.6833 35.8467 43.29 35.96 43.97 35.96C44.9167 35.96 45.71 35.7133 46.35 35.22C46.99 34.7267 47.4567 34.1 47.75 33.34L48.53 33.72C48.41 34.1067 48.2167 34.5067 47.95 34.92C47.6833 35.3333 47.3433 35.7133 46.93 36.06C46.53 36.4067 46.05 36.6933 45.49 36.92C44.93 37.1333 44.2967 37.24 43.59 37.24ZM49.8639 36.02H51.3039C51.9172 35.22 52.4039 34.2067 52.7639 32.98C53.1372 31.74 53.3239 30.2467 53.3239 28.5V27.58H51.8239V26.68H60.5039V27.58H59.0239V36.02H61.0239V40H59.5439V37H51.3439V40H49.8639V36.02ZM57.3839 36.02V27.66H54.5239V28.5C54.5239 30.14 54.3572 31.6067 54.0239 32.9C53.6906 34.1933 53.2439 35.2333 52.6839 36.02H57.3839ZM67.1152 37.24C66.3818 37.24 65.7218 37.1133 65.1352 36.86C64.5618 36.5933 64.0752 36.2267 63.6752 35.76C63.2752 35.2933 62.9685 34.7267 62.7552 34.06C62.5418 33.3933 62.4352 32.6533 62.4352 31.84C62.4352 31.04 62.5485 30.3133 62.7752 29.66C63.0152 28.9933 63.3352 28.42 63.7352 27.94C64.1485 27.46 64.6352 27.0933 65.1952 26.84C65.7552 26.5733 66.3685 26.44 67.0352 26.44C67.7152 26.44 68.3218 26.56 68.8552 26.8C69.3885 27.04 69.8352 27.38 70.1952 27.82C70.5685 28.2467 70.8552 28.76 71.0552 29.36C71.2552 29.96 71.3552 30.6133 71.3552 31.32V31.78H64.2552V32.3C64.2552 33.4333 64.5352 34.3267 65.0952 34.98C65.6685 35.6333 66.4285 35.96 67.3752 35.96C68.2018 35.96 68.8552 35.7933 69.3352 35.46C69.8285 35.1133 70.2152 34.6667 70.4952 34.12L71.1552 34.54C71.0218 34.8867 70.8352 35.2267 70.5952 35.56C70.3685 35.88 70.0885 36.1667 69.7552 36.42C69.4218 36.66 69.0352 36.8533 68.5952 37C68.1552 37.16 67.6618 37.24 67.1152 37.24ZM64.2552 30.86H69.6352V30.66C69.6352 30.1933 69.5818 29.76 69.4752 29.36C69.3818 28.96 69.2285 28.6133 69.0152 28.32C68.8018 28.0267 68.5285 27.8 68.1952 27.64C67.8752 27.4667 67.4885 27.38 67.0352 27.38C66.5818 27.38 66.1818 27.46 65.8352 27.62C65.4885 27.78 65.1952 28.0067 64.9552 28.3C64.7285 28.5933 64.5552 28.94 64.4352 29.34C64.3152 29.7267 64.2552 30.1533 64.2552 30.62V30.86ZM74.1578 37.24C73.5578 37.24 73.1045 37.0867 72.7978 36.78C72.5045 36.46 72.3578 36.08 72.3578 35.64C72.3578 35.2933 72.4445 35.0133 72.6178 34.8C72.8045 34.5867 73.0711 34.48 73.4178 34.48C73.7245 34.48 73.9578 34.5667 74.1178 34.74C74.2911 34.9133 74.3778 35.1467 74.3778 35.44C74.3778 35.6533 74.3245 35.84 74.2178 36C74.1111 36.1467 73.9911 36.2467 73.8578 36.3V36.36C73.8978 36.3867 73.9445 36.4 73.9978 36.4C74.0645 36.4 74.1245 36.4 74.1778 36.4C74.4845 36.4 74.7445 36.2933 74.9578 36.08C75.0911 35.9467 75.2245 35.7533 75.3578 35.5C75.4911 35.2333 75.6045 34.8333 75.6978 34.3C75.8045 33.7667 75.8845 33.06 75.9378 32.18C76.0045 31.2867 76.0378 30.1467 76.0378 28.76V27.58H74.5578V26.68H83.3378V27.58H81.8578V36.08H83.3378V37H78.7378V36.08H80.2178V27.66H77.2378V28.66C77.2378 30.0467 77.2045 31.2 77.1378 32.12C77.0845 33.04 76.9978 33.8 76.8778 34.4C76.7711 35 76.6311 35.4733 76.4578 35.82C76.2978 36.1533 76.1045 36.4267 75.8778 36.64C75.6511 36.8667 75.3845 37.02 75.0778 37.1C74.7711 37.1933 74.4645 37.24 74.1578 37.24ZM88.3881 37.24C87.4281 37.24 86.6748 36.9933 86.1281 36.5C85.5948 35.9933 85.3281 35.3067 85.3281 34.44C85.3281 33.9467 85.4081 33.5133 85.5681 33.14C85.7281 32.7533 85.9881 32.4333 86.3481 32.18C86.7215 31.9267 87.2015 31.7333 87.7881 31.6C88.3748 31.4667 89.0881 31.4 89.9281 31.4H91.4081V29.88C91.4081 29.0667 91.2081 28.4467 90.8081 28.02C90.4215 27.58 89.8348 27.36 89.0481 27.36C88.7015 27.36 88.3815 27.3933 88.0881 27.46C87.7948 27.5133 87.5548 27.5933 87.3681 27.7V27.74C87.5148 27.82 87.6548 27.94 87.7881 28.1C87.9348 28.26 88.0081 28.4867 88.0081 28.78C88.0081 29.1267 87.9081 29.4 87.7081 29.6C87.5081 29.7867 87.2415 29.88 86.9081 29.88C86.5881 29.88 86.3215 29.7867 86.1081 29.6C85.9081 29.4 85.8081 29.1067 85.8081 28.72C85.8081 28.4267 85.8948 28.1467 86.0681 27.88C86.2415 27.6 86.4881 27.3533 86.8081 27.14C87.1281 26.9267 87.5215 26.76 87.9881 26.64C88.4681 26.5067 89.0081 26.44 89.6081 26.44C90.6881 26.44 91.5281 26.72 92.1281 27.28C92.7415 27.84 93.0481 28.6267 93.0481 29.64V36.14H94.5481V36.84C94.4015 36.9467 94.2015 37.04 93.9481 37.12C93.7081 37.2 93.4348 37.24 93.1281 37.24C92.6081 37.24 92.2081 37.0933 91.9281 36.8C91.6481 36.5067 91.5081 36.1133 91.5081 35.62V35.48H91.4081C91.3148 35.7067 91.1881 35.9267 91.0281 36.14C90.8815 36.3533 90.6881 36.54 90.4481 36.7C90.2081 36.86 89.9148 36.9867 89.5681 37.08C89.2348 37.1867 88.8415 37.24 88.3881 37.24ZM89.0881 36.14C89.7281 36.14 90.2748 35.98 90.7281 35.66C91.1815 35.3267 91.4081 34.82 91.4081 34.14V32.2H90.1081C89.5348 32.2 89.0548 32.2467 88.6681 32.34C88.2815 32.42 87.9748 32.5467 87.7481 32.72C87.5215 32.88 87.3548 33.08 87.2481 33.32C87.1548 33.56 87.1081 33.84 87.1081 34.16V34.58C87.1081 35.0867 87.2815 35.4733 87.6281 35.74C87.9748 36.0067 88.4615 36.14 89.0881 36.14ZM97.5122 36.08H99.3922V27.66H96.8722V29.72H95.6722V26.68H104.752V29.72H103.552V27.66H101.032V36.08H102.912V37H97.5122V36.08ZM106.441 36.08H107.921V27.58H106.441V26.68H111.041V27.58H109.561V30.68H112.201C113.268 30.68 114.081 30.9533 114.641 31.5C115.201 32.0333 115.481 32.8067 115.481 33.82C115.481 34.82 115.188 35.6 114.601 36.16C114.028 36.72 113.221 37 112.181 37H106.441V36.08ZM111.941 36.02C112.541 36.02 112.981 35.8533 113.261 35.52C113.541 35.1733 113.681 34.74 113.681 34.22V33.46C113.681 32.9267 113.541 32.4933 113.261 32.16C112.981 31.8267 112.541 31.66 111.941 31.66H109.561V36.02H111.941ZM121.73 40.08H123.21V27.98L121.73 27.72V27.04L124.85 26.44V28.24H124.93C125.156 27.7467 125.516 27.3267 126.01 26.98C126.503 26.62 127.156 26.44 127.97 26.44C129.25 26.44 130.27 26.9067 131.03 27.84C131.803 28.76 132.19 30.0933 132.19 31.84C132.19 33.5867 131.803 34.9267 131.03 35.86C130.27 36.78 129.25 37.24 127.97 37.24C127.17 37.24 126.516 37.0667 126.01 36.72C125.516 36.3733 125.156 35.9533 124.93 35.46H124.85V40.08H126.73V41H121.73V40.08ZM127.49 36.1C128.41 36.1 129.123 35.7933 129.63 35.18C130.15 34.5533 130.41 33.72 130.41 32.68V31C130.41 29.96 130.15 29.1333 129.63 28.52C129.123 27.8933 128.41 27.58 127.49 27.58C127.17 27.58 126.85 27.6267 126.53 27.72C126.21 27.8133 125.923 27.9467 125.67 28.12C125.43 28.2933 125.23 28.5133 125.07 28.78C124.923 29.0333 124.85 29.32 124.85 29.64V34.04C124.85 34.36 124.923 34.6533 125.07 34.92C125.23 35.1733 125.43 35.3867 125.67 35.56C125.923 35.7333 126.21 35.8667 126.53 35.96C126.85 36.0533 127.17 36.1 127.49 36.1ZM137.451 37.24C136.491 37.24 135.737 36.9933 135.191 36.5C134.657 35.9933 134.391 35.3067 134.391 34.44C134.391 33.9467 134.471 33.5133 134.631 33.14C134.791 32.7533 135.051 32.4333 135.411 32.18C135.784 31.9267 136.264 31.7333 136.851 31.6C137.437 31.4667 138.151 31.4 138.991 31.4H140.471V29.88C140.471 29.0667 140.271 28.4467 139.871 28.02C139.484 27.58 138.897 27.36 138.111 27.36C137.764 27.36 137.444 27.3933 137.151 27.46C136.857 27.5133 136.617 27.5933 136.431 27.7V27.74C136.577 27.82 136.717 27.94 136.851 28.1C136.997 28.26 137.071 28.4867 137.071 28.78C137.071 29.1267 136.971 29.4 136.771 29.6C136.571 29.7867 136.304 29.88 135.971 29.88C135.651 29.88 135.384 29.7867 135.171 29.6C134.971 29.4 134.871 29.1067 134.871 28.72C134.871 28.4267 134.957 28.1467 135.131 27.88C135.304 27.6 135.551 27.3533 135.871 27.14C136.191 26.9267 136.584 26.76 137.051 26.64C137.531 26.5067 138.071 26.44 138.671 26.44C139.751 26.44 140.591 26.72 141.191 27.28C141.804 27.84 142.111 28.6267 142.111 29.64V36.14H143.611V36.84C143.464 36.9467 143.264 37.04 143.011 37.12C142.771 37.2 142.497 37.24 142.191 37.24C141.671 37.24 141.271 37.0933 140.991 36.8C140.711 36.5067 140.571 36.1133 140.571 35.62V35.48H140.471C140.377 35.7067 140.251 35.9267 140.091 36.14C139.944 36.3533 139.751 36.54 139.511 36.7C139.271 36.86 138.977 36.9867 138.631 37.08C138.297 37.1867 137.904 37.24 137.451 37.24ZM138.151 36.14C138.791 36.14 139.337 35.98 139.791 35.66C140.244 35.3267 140.471 34.82 140.471 34.14V32.2H139.171C138.597 32.2 138.117 32.2467 137.731 32.34C137.344 32.42 137.037 32.5467 136.811 32.72C136.584 32.88 136.417 33.08 136.311 33.32C136.217 33.56 136.171 33.84 136.171 34.16V34.58C136.171 35.0867 136.344 35.4733 136.691 35.74C137.037 36.0067 137.524 36.14 138.151 36.14ZM149.909 37.24C149.162 37.24 148.495 37.1133 147.909 36.86C147.335 36.5933 146.849 36.2267 146.449 35.76C146.049 35.28 145.742 34.7133 145.529 34.06C145.315 33.3933 145.209 32.6533 145.209 31.84C145.209 31.0133 145.322 30.2667 145.549 29.6C145.789 28.9333 146.122 28.3667 146.549 27.9C146.975 27.4333 147.482 27.0733 148.069 26.82C148.669 26.5667 149.329 26.44 150.049 26.44C151.129 26.44 151.982 26.6733 152.609 27.14C153.249 27.5933 153.569 28.1733 153.569 28.88C153.569 29.3067 153.455 29.64 153.229 29.88C153.015 30.12 152.715 30.24 152.329 30.24C151.915 30.24 151.609 30.12 151.409 29.88C151.209 29.64 151.109 29.3533 151.109 29.02C151.109 28.7267 151.182 28.4733 151.329 28.26C151.475 28.0467 151.682 27.88 151.949 27.76V27.7C151.775 27.5933 151.549 27.5133 151.269 27.46C151.002 27.4067 150.655 27.38 150.229 27.38C149.762 27.38 149.329 27.4667 148.929 27.64C148.542 27.8133 148.209 28.06 147.929 28.38C147.649 28.6867 147.429 29.0533 147.269 29.48C147.109 29.8933 147.029 30.3467 147.029 30.84V32.32C147.029 32.8667 147.102 33.3667 147.249 33.82C147.395 34.26 147.602 34.64 147.869 34.96C148.149 35.28 148.475 35.5267 148.849 35.7C149.235 35.8733 149.669 35.96 150.149 35.96C150.962 35.96 151.602 35.7933 152.069 35.46C152.535 35.1133 152.909 34.6667 153.189 34.12L153.829 34.54C153.709 34.8867 153.535 35.2267 153.309 35.56C153.082 35.88 152.809 36.1667 152.489 36.42C152.169 36.66 151.789 36.8533 151.349 37C150.922 37.16 150.442 37.24 149.909 37.24ZM160.984 36.08H162.864V31.92H162.804C162.484 32.3067 162.077 32.62 161.584 32.86C161.104 33.1 160.504 33.22 159.784 33.22C158.744 33.22 157.964 32.98 157.444 32.5C156.924 32.02 156.664 31.2333 156.664 30.14V27.58H155.184V26.68H159.684V27.58H158.304V29.98C158.304 30.74 158.464 31.28 158.784 31.6C159.117 31.92 159.691 32.08 160.504 32.08C161.211 32.08 161.777 31.9533 162.204 31.7C162.644 31.4467 162.864 31.0667 162.864 30.56V27.58H161.484V26.68H165.984V27.58H164.504V36.08H165.984V37H160.984V36.08ZM172.564 37.24C171.831 37.24 171.171 37.1133 170.584 36.86C170.011 36.5933 169.524 36.2267 169.124 35.76C168.724 35.2933 168.418 34.7267 168.204 34.06C167.991 33.3933 167.884 32.6533 167.884 31.84C167.884 31.04 167.998 30.3133 168.224 29.66C168.464 28.9933 168.784 28.42 169.184 27.94C169.598 27.46 170.084 27.0933 170.644 26.84C171.204 26.5733 171.818 26.44 172.484 26.44C173.164 26.44 173.771 26.56 174.304 26.8C174.838 27.04 175.284 27.38 175.644 27.82C176.018 28.2467 176.304 28.76 176.504 29.36C176.704 29.96 176.804 30.6133 176.804 31.32V31.78H169.704V32.3C169.704 33.4333 169.984 34.3267 170.544 34.98C171.118 35.6333 171.878 35.96 172.824 35.96C173.651 35.96 174.304 35.7933 174.784 35.46C175.278 35.1133 175.664 34.6667 175.944 34.12L176.604 34.54C176.471 34.8867 176.284 35.2267 176.044 35.56C175.818 35.88 175.538 36.1667 175.204 36.42C174.871 36.66 174.484 36.8533 174.044 37C173.604 37.16 173.111 37.24 172.564 37.24ZM169.704 30.86H175.084V30.66C175.084 30.1933 175.031 29.76 174.924 29.36C174.831 28.96 174.678 28.6133 174.464 28.32C174.251 28.0267 173.978 27.8 173.644 27.64C173.324 27.4667 172.938 27.38 172.484 27.38C172.031 27.38 171.631 27.46 171.284 27.62C170.938 27.78 170.644 28.0067 170.404 28.3C170.178 28.5933 170.004 28.94 169.884 29.34C169.764 29.7267 169.704 30.1533 169.704 30.62V30.86ZM180.286 36.08H182.166V27.66H179.646V29.72H178.446V26.68H187.526V29.72H186.326V27.66H183.806V36.08H185.686V37H180.286V36.08ZM193.863 36.08H195.343V27.58H193.863V26.68H198.423V27.58H196.943V31.36L196.763 34.14H196.823L201.983 28.18V27.58H200.503V26.68H205.063V27.58H203.583V36.08H205.063V37H200.503V36.08H201.983V32.34L202.163 29.54H202.083L196.943 35.5V36.08H198.423V37H193.863V36.08ZM215.495 37.24C214.895 37.24 214.355 37.1733 213.875 37.04C213.408 36.9067 213.008 36.7333 212.675 36.52C212.342 36.2933 212.082 36.0333 211.895 35.74C211.722 35.4333 211.635 35.12 211.635 34.8C211.635 34.4133 211.742 34.1067 211.955 33.88C212.168 33.6533 212.448 33.54 212.795 33.54C213.168 33.54 213.448 33.6533 213.635 33.88C213.822 34.1067 213.915 34.38 213.915 34.7C213.915 34.9533 213.848 35.18 213.715 35.38C213.595 35.5667 213.415 35.7133 213.175 35.82V35.86C213.402 36.0067 213.675 36.12 213.995 36.2C214.328 36.28 214.775 36.32 215.335 36.32C216.175 36.32 216.802 36.14 217.215 35.78C217.642 35.42 217.855 34.9867 217.855 34.48V33.98C217.855 33.5 217.688 33.0867 217.355 32.74C217.022 32.3933 216.502 32.22 215.795 32.22H214.335V31.24H215.695C216.282 31.24 216.742 31.0867 217.075 30.78C217.422 30.46 217.595 30.0467 217.595 29.54V29.14C217.595 28.6333 217.428 28.2067 217.095 27.86C216.775 27.5133 216.295 27.34 215.655 27.34C214.908 27.34 214.302 27.5133 213.835 27.86C213.382 28.2067 213.155 28.6667 213.155 29.24V29.82H211.955V26.68H213.155V27.66H213.215C213.468 27.3133 213.802 27.0267 214.215 26.8C214.642 26.56 215.195 26.44 215.875 26.44C216.982 26.44 217.835 26.6867 218.435 27.18C219.035 27.66 219.335 28.32 219.335 29.16C219.335 29.8 219.142 30.3267 218.755 30.74C218.368 31.14 217.875 31.4133 217.275 31.56V31.64C217.982 31.7867 218.542 32.0667 218.955 32.48C219.368 32.8933 219.575 33.4533 219.575 34.16C219.575 34.6267 219.468 35.0533 219.255 35.44C219.055 35.8133 218.768 36.1333 218.395 36.4C218.035 36.6667 217.602 36.8733 217.095 37.02C216.602 37.1667 216.068 37.24 215.495 37.24ZM224.873 37.24C223.913 37.24 223.159 36.9933 222.613 36.5C222.079 35.9933 221.813 35.3067 221.813 34.44C221.813 33.9467 221.893 33.5133 222.053 33.14C222.213 32.7533 222.473 32.4333 222.833 32.18C223.206 31.9267 223.686 31.7333 224.273 31.6C224.859 31.4667 225.573 31.4 226.413 31.4H227.893V29.88C227.893 29.0667 227.693 28.4467 227.293 28.02C226.906 27.58 226.319 27.36 225.533 27.36C225.186 27.36 224.866 27.3933 224.573 27.46C224.279 27.5133 224.039 27.5933 223.853 27.7V27.74C223.999 27.82 224.139 27.94 224.273 28.1C224.419 28.26 224.493 28.4867 224.493 28.78C224.493 29.1267 224.393 29.4 224.193 29.6C223.993 29.7867 223.726 29.88 223.393 29.88C223.073 29.88 222.806 29.7867 222.593 29.6C222.393 29.4 222.293 29.1067 222.293 28.72C222.293 28.4267 222.379 28.1467 222.553 27.88C222.726 27.6 222.973 27.3533 223.293 27.14C223.613 26.9267 224.006 26.76 224.473 26.64C224.953 26.5067 225.493 26.44 226.092 26.44C227.173 26.44 228.013 26.72 228.613 27.28C229.226 27.84 229.533 28.6267 229.533 29.64V36.14H231.033V36.84C230.886 36.9467 230.686 37.04 230.433 37.12C230.193 37.2 229.919 37.24 229.613 37.24C229.093 37.24 228.693 37.0933 228.413 36.8C228.133 36.5067 227.993 36.1133 227.993 35.62V35.48H227.893C227.799 35.7067 227.673 35.9267 227.513 36.14C227.366 36.3533 227.173 36.54 226.933 36.7C226.693 36.86 226.399 36.9867 226.053 37.08C225.719 37.1867 225.326 37.24 224.873 37.24ZM225.573 36.14C226.213 36.14 226.759 35.98 227.213 35.66C227.666 35.3267 227.893 34.82 227.893 34.14V32.2H226.593C226.019 32.2 225.539 32.2467 225.153 32.34C224.766 32.42 224.459 32.5467 224.233 32.72C224.006 32.88 223.839 33.08 223.733 33.32C223.639 33.56 223.593 33.84 223.593 34.16V34.58C223.593 35.0867 223.766 35.4733 224.113 35.74C224.459 36.0067 224.946 36.14 225.573 36.14ZM232.73 36.08H234.21V27.58H232.73V26.68H237.33V27.58H235.85V31.32H237.51L238.63 28.8C239.017 27.92 239.41 27.3067 239.81 26.96C240.224 26.6133 240.684 26.44 241.19 26.44C241.63 26.44 241.97 26.5667 242.21 26.82C242.45 27.0733 242.57 27.3933 242.57 27.78C242.57 28.1667 242.464 28.48 242.25 28.72C242.05 28.9467 241.777 29.06 241.43 29.06C241.084 29.06 240.817 28.9533 240.63 28.74C240.444 28.5267 240.35 28.2267 240.35 27.84H240.29C240.184 27.9733 240.064 28.1533 239.93 28.38C239.797 28.5933 239.664 28.8467 239.53 29.14L238.41 31.66C238.677 31.7 238.904 31.7867 239.09 31.92C239.277 32.0533 239.457 32.2533 239.63 32.52L241.93 36.08H243.05V37H240.59L237.51 32.24H235.85V36.08H237.33V37H232.73V36.08ZM247.353 37.24C246.393 37.24 245.64 36.9933 245.093 36.5C244.56 35.9933 244.293 35.3067 244.293 34.44C244.293 33.9467 244.373 33.5133 244.533 33.14C244.693 32.7533 244.953 32.4333 245.313 32.18C245.686 31.9267 246.166 31.7333 246.753 31.6C247.34 31.4667 248.053 31.4 248.893 31.4H250.373V29.88C250.373 29.0667 250.173 28.4467 249.773 28.02C249.386 27.58 248.8 27.36 248.013 27.36C247.666 27.36 247.346 27.3933 247.053 27.46C246.76 27.5133 246.52 27.5933 246.333 27.7V27.74C246.48 27.82 246.62 27.94 246.753 28.1C246.9 28.26 246.973 28.4867 246.973 28.78C246.973 29.1267 246.873 29.4 246.673 29.6C246.473 29.7867 246.206 29.88 245.873 29.88C245.553 29.88 245.286 29.7867 245.073 29.6C244.873 29.4 244.773 29.1067 244.773 28.72C244.773 28.4267 244.86 28.1467 245.033 27.88C245.206 27.6 245.453 27.3533 245.773 27.14C246.093 26.9267 246.486 26.76 246.953 26.64C247.433 26.5067 247.973 26.44 248.573 26.44C249.653 26.44 250.493 26.72 251.093 27.28C251.706 27.84 252.013 28.6267 252.013 29.64V36.14H253.513V36.84C253.366 36.9467 253.166 37.04 252.913 37.12C252.673 37.2 252.4 37.24 252.093 37.24C251.573 37.24 251.173 37.0933 250.893 36.8C250.613 36.5067 250.473 36.1133 250.473 35.62V35.48H250.373C250.28 35.7067 250.153 35.9267 249.993 36.14C249.846 36.3533 249.653 36.54 249.413 36.7C249.173 36.86 248.88 36.9867 248.533 37.08C248.2 37.1867 247.806 37.24 247.353 37.24ZM248.053 36.14C248.693 36.14 249.24 35.98 249.693 35.66C250.146 35.3267 250.373 34.82 250.373 34.14V32.2H249.073C248.5 32.2 248.02 32.2467 247.633 32.34C247.246 32.42 246.94 32.5467 246.713 32.72C246.486 32.88 246.32 33.08 246.213 33.32C246.12 33.56 246.073 33.84 246.073 34.16V34.58C246.073 35.0867 246.246 35.4733 246.593 35.74C246.94 36.0067 247.426 36.14 248.053 36.14ZM258.991 37.24C258.391 37.24 257.851 37.1733 257.371 37.04C256.904 36.9067 256.504 36.7333 256.171 36.52C255.838 36.2933 255.578 36.0333 255.391 35.74C255.218 35.4333 255.131 35.12 255.131 34.8C255.131 34.4133 255.238 34.1067 255.451 33.88C255.664 33.6533 255.944 33.54 256.291 33.54C256.664 33.54 256.944 33.6533 257.131 33.88C257.318 34.1067 257.411 34.38 257.411 34.7C257.411 34.9533 257.344 35.18 257.211 35.38C257.091 35.5667 256.911 35.7133 256.671 35.82V35.86C256.898 36.0067 257.171 36.12 257.491 36.2C257.824 36.28 258.271 36.32 258.831 36.32C259.671 36.32 260.298 36.14 260.711 35.78C261.138 35.42 261.351 34.9867 261.351 34.48V33.98C261.351 33.5 261.184 33.0867 260.851 32.74C260.518 32.3933 259.998 32.22 259.291 32.22H257.831V31.24H259.191C259.778 31.24 260.238 31.0867 260.571 30.78C260.918 30.46 261.091 30.0467 261.091 29.54V29.14C261.091 28.6333 260.924 28.2067 260.591 27.86C260.271 27.5133 259.791 27.34 259.151 27.34C258.404 27.34 257.798 27.5133 257.331 27.86C256.878 28.2067 256.651 28.6667 256.651 29.24V29.82H255.451V26.68H256.651V27.66H256.711C256.964 27.3133 257.298 27.0267 257.711 26.8C258.138 26.56 258.691 26.44 259.371 26.44C260.478 26.44 261.331 26.6867 261.931 27.18C262.531 27.66 262.831 28.32 262.831 29.16C262.831 29.8 262.638 30.3267 262.251 30.74C261.864 31.14 261.371 31.4133 260.771 31.56V31.64C261.478 31.7867 262.038 32.0667 262.451 32.48C262.864 32.8933 263.071 33.4533 263.071 34.16C263.071 34.6267 262.964 35.0533 262.751 35.44C262.551 35.8133 262.264 36.1333 261.891 36.4C261.531 36.6667 261.098 36.8733 260.591 37.02C260.098 37.1667 259.564 37.24 258.991 37.24Z" fill="#EFE3DF"/>
</svg>
